# xmcd
#
# Track frame offsets: 
#        183
#        4295
#        24340
#        46723
#        65453
#        68590
#        94710
#        121313
#        142615
#        161795
#        187048
#        207685
#        225123
#
# Disc length: 3252 seconds
#
# Revision: 5
# Processed by: cddbd v1.5.2PL0 Copyright (c) Steve Scherf et al.
# Submitted via: ExactAudioCopy v1.0b3
#
DISCID=a20cb20d
DTITLE=Omar - For Pleasure
DYEAR=1994
DGENRE=Soul
TTITLE0=My Baby Says
TTITLE1=I'm Still Standing
TTITLE2=Saturday
TTITLE3=Keep Steppin'
TTITLE4=Magical Mystery Interlude
TTITLE5=Outside
TTITLE6=Little Boy
TTITLE7=Need You Bad
TTITLE8=Can't Get Nowhere
TTITLE9=Confection
TTITLE10=Magical Mystical Way
TTITLE11=Making Sense Of It
TTITLE12=For Pleasure
EXTD=
EXTT0=
EXTT1=
EXTT2=
EXTT3=
EXTT4=
EXTT5=
EXTT6=
EXTT7=
EXTT8=
EXTT9=
EXTT10=
EXTT11=
EXTT12=
PLAYORDER=
